<svg viewBox="4 4 74 58" width="74" height="58" xmlns="http://www.w3.org/2000/svg"><svg width="82" height="66" viewBox="0 0 82 66" xmlns="http://www.w3.org/2000/svg" style="transform-origin:41.0234px 32.5988px"><g fill="none" fill-rule="evenodd"><path d="M57.462-2.429H12.588c-4.935 0-6.697.585-8.493 1.546A10.871 10.871 0 0 0-.43 3.642c-.961 1.796-1.545 3.558-1.545 8.492v28.874c0 4.935.584 6.697 1.545 8.493a10.871 10.871 0 0 0 4.525 4.525c1.796.961 3.558 1.545 8.493 1.545h44.874c4.934 0 6.696-.584 8.492-1.545a10.871 10.871 0 0 0 4.525-4.525c.961-1.796 1.546-3.558 1.546-8.493V12.134c0-4.934-.585-6.696-1.546-8.492a10.871 10.871 0 0 0-4.525-4.525c-1.796-.961-3.558-1.546-8.492-1.546Z" stroke="#FFF" stroke-width="4" fill="#EEE" transform="translate(8.272 7.752) scale(.9351)"/><path d="M12.588-.429h44.874c4.368 0 5.952.455 7.549 1.309a8.906 8.906 0 0 1 3.705 3.705c.172.322.328.643.467.986H.866c.14-.343.295-.664.468-.986A8.904 8.904 0 0 1 5.038.88C6.635.026 8.219-.429 12.588-.429Zm57.434 12c.002.183.003.37.003.563v5.437h-70v-5.437c0-.193 0-.38.002-.563h69.995ZM70.025 23.571v6h-70v-6zM70.025 41.008c0 .193-.001.381-.003.563H.027c-.002-.182-.002-.37-.002-.563v-5.437h70v5.437Zm-.842 6.563c-.139.344-.295.665-.467.987a8.904 8.904 0 0 1-3.705 3.704c-1.597.854-3.181 1.309-7.549 1.309H12.588c-4.369 0-5.953-.455-7.55-1.309a8.902 8.902 0 0 1-3.704-3.704 10.142 10.142 0 0 1-.468-.987h68.317Z" fill="#FF4B4B" transform="translate(8.272 7.752) scale(.9351)"/><path d="M12.588-.429h22.437v24h-35V12.134c0-4.368.454-5.952 1.309-7.549A8.904 8.904 0 0 1 5.038.88C6.635.026 8.219-.429 12.588-.429Z" fill="#1CB0F6" transform="translate(8.272 7.752) scale(.9351)"/><path d="m26.238 9.763-1.13.594a.729.729 0 0 1-.98-.304.737.737 0 0 1-.072-.461l.217-1.258a.372.372 0 0 0-.107-.327l-.914-.889a.727.727 0 0 1 .403-1.237l1.261-.185a.36.36 0 0 0 .279-.201l.565-1.142a.722.722 0 0 1 1.3 0l.564 1.142a.36.36 0 0 0 .278.201l1.261.185a.724.724 0 0 1 .403 1.237l-.912.889a.365.365 0 0 0-.108.327l.214 1.258a.724.724 0 0 1-1.05.765l-1.13-.594a.358.358 0 0 0-.342 0Zm0 8.852-1.13.591a.727.727 0 0 1-.98-.303.734.734 0 0 1-.072-.46l.217-1.257a.366.366 0 0 0-.107-.326l-.914-.892a.725.725 0 0 1 .403-1.237l1.261-.182a.374.374 0 0 0 .279-.202l.565-1.144a.724.724 0 0 1 1.3 0l.564 1.144a.374.374 0 0 0 .278.202l1.261.182a.724.724 0 0 1 .403 1.237l-.912.892a.359.359 0 0 0-.108.326l.214 1.257a.722.722 0 0 1-1.05.763l-1.13-.591a.363.363 0 0 0-.342 0Zm-8.853-8.852-1.129.594a.725.725 0 0 1-1.051-.765l.214-1.258a.37.37 0 0 0-.104-.327l-.915-.889a.725.725 0 0 1 .402-1.237l1.264-.185a.36.36 0 0 0 .278-.201l.564-1.142a.725.725 0 0 1 1.301 0l.564 1.142c.055.11.158.186.278.201l1.262.185a.728.728 0 0 1 .402 1.237l-.915.889a.376.376 0 0 0-.104.327l.214 1.258a.724.724 0 0 1-1.05.765l-1.13-.594a.364.364 0 0 0-.345 0Zm0 8.852-1.129.591a.723.723 0 0 1-1.051-.763l.214-1.257a.364.364 0 0 0-.104-.326l-.915-.892a.723.723 0 0 1-.012-1.024.734.734 0 0 1 .414-.213l1.264-.182a.374.374 0 0 0 .278-.202l.564-1.144a.727.727 0 0 1 1.301 0l.564 1.144a.378.378 0 0 0 .278.202l1.262.182a.727.727 0 0 1 .402 1.237l-.915.892a.37.37 0 0 0-.104.326l.214 1.257a.721.721 0 0 1-1.05.763l-1.13-.591a.37.37 0 0 0-.345 0Zm-8.85-8.852-1.128.594a.73.73 0 0 1-.981-.304.736.736 0 0 1-.071-.461l.215-1.258a.374.374 0 0 0-.105-.327l-.914-.889a.723.723 0 0 1 .401-1.237l1.263-.185a.36.36 0 0 0 .278-.201l.566-1.142a.721.721 0 0 1 .969-.33.74.74 0 0 1 .331.33l.564 1.142c.052.11.155.186.276.201l1.263.185a.727.727 0 0 1 .614.822.722.722 0 0 1-.213.415l-.912.889a.37.37 0 0 0-.107.327l.215 1.258a.726.726 0 0 1-1.052.765l-1.128-.594a.362.362 0 0 0-.344 0Zm0 8.852-1.128.591a.727.727 0 0 1-.981-.303.733.733 0 0 1-.071-.46l.215-1.257a.368.368 0 0 0-.105-.326l-.914-.892a.721.721 0 0 1-.014-1.024.733.733 0 0 1 .415-.213l1.263-.182a.376.376 0 0 0 .278-.202l.566-1.144a.723.723 0 0 1 1.3 0l.564 1.144a.367.367 0 0 0 .276.202l1.263.182a.727.727 0 0 1 .401 1.237l-.912.892a.363.363 0 0 0-.107.326l.215 1.257a.723.723 0 0 1-1.052.763l-1.128-.591a.367.367 0 0 0-.344 0Z" fill="#FFF" fill-rule="nonzero" transform="translate(8.272 7.752) scale(.9351)"/></g></svg></svg>