<svg viewBox="0 0 309 242" xmlns="http://www.w3.org/2000/svg" xml:space="preserve" style="fill-rule:evenodd;clip-rule:evenodd;stroke-linecap:round;stroke-miterlimit:10"><path d="M240.513 10.808H67.821c-18.988 0-25.767 2.217-32.684 5.863a41.603 41.603 0 0 0-17.412 17.166c-3.696 6.817-5.946 13.5-5.946 32.221v109.55c0 18.721 2.25 25.404 5.946 32.221a41.6 41.6 0 0 0 17.412 17.167c6.917 3.646 13.696 5.862 32.684 5.862h172.692c18.991 0 25.77-2.216 32.683-5.862a41.554 41.554 0 0 0 17.412-17.167c3.696-6.817 5.946-13.5 5.946-32.221V66.058c0-18.721-2.25-25.404-5.946-32.221a41.551 41.551 0 0 0-17.412-17.166c-6.913-3.646-13.692-5.863-32.684-5.863Z" style="fill:#5ebf40;fill-rule:nonzero"/><path d="m139.245 10.808 1.106-.004c10.296-.043 20.86-.101 31.085-.313a1699.81 1699.81 0 0 0 34.538-1.085c20.336-.84 34.538-1.768 34.538-1.768 9.25.043 15.681.594 20.642 1.553 5.729 1.107 9.571 2.744 13.434 4.804a44.51 44.51 0 0 1 18.573 18.459c2.054 3.829 3.682 7.617 4.751 13.249.93 4.896 1.436 11.235 1.395 20.355l-.481 109.55c-.039 9.07-.592 15.37-1.559 20.23-1.102 5.535-2.732 9.253-4.785 13a43.668 43.668 0 0 1-7.833 10.361 43.549 43.549 0 0 1-10.511 7.583c-3.81 1.989-7.579 3.564-13.191 4.597-4.916.905-11.283 1.393-20.434 1.353l-172.692-.721c-9.083-.037-15.397-.568-20.27-1.508-5.488-1.058-9.169-2.629-12.883-4.606a42.577 42.577 0 0 1-17.754-17.628c-1.97-3.665-3.532-7.291-4.56-12.682-.916-4.804-1.408-11.027-1.374-19.979l.391-109.55c.027-8.91.556-15.102 1.501-19.878 1.051-5.315 2.616-8.884 4.584-12.487a41.884 41.884 0 0 1 17.575-17.224c3.664-1.917 7.289-3.436 12.684-4.436 4.837-.898 11.101-1.378 20.106-1.352 0 0 9.415.077 23.853.127-14.438.05-23.853.128-23.853.128-8.977.026-15.22.539-20.037 1.463-5.339 1.024-8.921 2.552-12.541 4.474a41.322 41.322 0 0 0-17.249 17.11h-.001c-1.917 3.563-3.438 7.088-4.441 12.329-.908 4.748-1.392 10.899-1.364 19.746l.391 109.55c.032 8.807.554 14.926 1.49 19.646 1.025 5.165 2.551 8.633 4.468 12.136v.001a40.648 40.648 0 0 0 17.072 16.705l.002.001c3.565 1.86 7.091 3.334 12.337 4.302 4.782.881 10.974 1.343 19.873 1.307l172.692-.721c8.83-.039 14.971-.547 19.708-1.461 5.126-.99 8.562-2.465 12.038-4.317l.005-.003a39.481 39.481 0 0 0 16.472-16.386l.002-.003c1.832-3.414 3.284-6.791 4.238-11.812.887-4.664 1.344-10.706 1.306-19.395l-.48-109.55c-.04-8.638-.549-14.64-1.471-19.269-.982-4.925-2.445-8.229-4.277-11.571l-.002-.004a38.573 38.573 0 0 0-16.256-15.871l-.007-.004c-3.402-1.774-6.767-3.178-11.775-4.099-4.692-.863-10.769-1.301-19.501-1.261 0 0-14.203-.929-34.539-1.768a1692.572 1692.572 0 0 0-34.538-1.085c-10.225-.212-20.789-.271-31.085-.314l-1.106-.004Zm-47.571 0c12.894-.046 29.798-.071 47.571 0-17.771.071-34.672.047-47.571 0Z" style="fill:#ffa000"/><circle cx="154.167" cy="120.833" r="62.027" style="fill:#26b9d9"/><path d="M85.8 85.815c12.828-18.49 38.255-23.086 56.745-10.258 18.49 12.829 23.086 38.255 10.257 56.745-12.828 18.49-38.255 23.086-56.744 10.258-18.49-12.829-23.087-38.255-10.258-56.745Zm16.751 11.622c6.414-9.245 19.127-11.544 28.372-5.129 9.245 6.414 11.543 19.127 5.129 28.372-6.414 9.245-19.128 11.543-28.373 5.129-9.245-6.414-11.543-19.128-5.128-28.372Z" style="fill:none;stroke:#fff;stroke-width:40.78px"/><path d="M177.02 63.166c7.608 3.544 14.22 8.916 19.622 15.192 9.767 11.345 14.933 26.391 13.615 42.475-1.234 14.985-8.633 27.8-19.274 36.817-9.856 8.352-22.937 12.376-36.816 11.226-9.886-.841-18.435-5.298-25.539-11.191-6.797-5.638-11.056-13.64-13.478-22.275-3.946-10.538-15.705-15.889-26.243-11.943-10.537 3.946-15.888 15.705-11.942 26.243 7.142 15.043 17.835 28.01 32.042 36.195 13.329 7.679 28.685 12.341 45.16 10.939 20.463-1.695 38.57-10.594 50.885-25.125 11.646-13.744 18.671-31.531 17.078-50.886-1.496-18.253-9.862-34.142-22.737-45.226-6.51-5.605-14.104-9.691-22.373-12.441a48.496 48.496 0 0 0-8.288-3.007c-4.638-1.217-9.563-1.476-14.565-1.353 4.973.123 9.739 1.043 14.398 2.054a81.571 81.571 0 0 1 8.455 2.306Z" style="fill:#fff"/></svg>