<svg viewBox="4 2182 74 58" width="74" height="58" xmlns="http://www.w3.org/2000/svg" xmlns:xlink="http://www.w3.org/1999/xlink"><defs><pattern id="b" patternTransform="translate(22.5 14.5)" xlink:href="#a"/><pattern x="0" y="0" width="25" height="25" patternUnits="userSpaceOnUse" viewBox="0 0 100 100" id="a"><path style="fill:#00ff2b" d="M0 0h50v100H0z"/><path style="fill:#1be4ff" d="M49.886.001h50v100h-50z"/></pattern></defs><svg y="2178" width="82" height="66" viewBox="0 0 82 66" xmlns="http://www.w3.org/2000/svg" transform="translate(0 2178)"><path d="M55.723.594H14.277c-4.557 0-6.184.532-7.844 1.407a9.983 9.983 0 0 0-4.179 4.12C1.367 7.757.827 9.361.827 13.854v26.292c0 4.493.54 6.097 1.427 7.733a9.983 9.983 0 0 0 4.179 4.12c1.66.875 3.287 1.407 7.844 1.407h41.446c4.558 0 6.185-.532 7.844-1.407a9.972 9.972 0 0 0 4.179-4.12c.887-1.636 1.427-3.24 1.427-7.733V13.854c0-4.493-.54-6.097-1.427-7.733a9.972 9.972 0 0 0-4.179-4.12C61.908 1.126 60.281.594 55.723.594Z" style="fill:url(#b)" transform="translate(6 6)" fill="#7AC70C" stroke="#FFF" stroke-width="4"/></svg></svg>